<svg width="44" height="41" viewBox="0 0 44 41" fill="none" xmlns="http://www.w3.org/2000/svg">
<path d="M22.0498 40.0381C22.0208 39.9231 21.9927 39.8079 21.9658 39.6924H22.1328C22.106 39.8078 22.0788 39.9232 22.0498 40.0381ZM15.1572 3.80664C18.0872 -1.26815 25.4119 -1.26813 28.3418 3.80664L42.4688 28.2744C45.3985 33.3492 41.7358 39.6924 35.876 39.6924H22.1328C22.6004 37.6805 22.7618 35.5962 23.2881 33.5986C24.6951 28.2584 29.3592 24.2102 35.0986 23.7812L33.9717 23.4795C28.2889 21.9566 23.787 17.621 22.0498 12C20.3126 17.621 15.8098 21.9566 10.127 23.4795L9 23.7812C14.7394 24.2101 19.4035 28.2584 20.8105 33.5986C21.3368 35.5962 21.4983 37.6805 21.9658 39.6924H21.8242C21.8001 39.7951 21.7758 39.8977 21.75 40C21.7242 39.8977 21.6999 39.7951 21.6758 39.6924H7.62305C1.76344 39.6921 -1.89851 33.3491 1.03125 28.2744L15.1572 3.80664Z" fill="#D09DA9"/>
</svg>
