<svg width="100" height="24" viewBox="0 0 100 24" fill="none" xmlns="http://www.w3.org/2000/svg">
<rect y="0.03125" width="48" height="23.9676" rx="1.60206" fill="white"/>
<path d="M23.1224 14.6707L19.3397 12.7589C18.8706 12.5219 18.8706 11.8521 19.3397 11.615L23.1224 9.70327C23.5487 9.48785 24.0523 9.79762 24.0523 10.2752V14.0987C24.0523 14.5763 23.5487 14.8861 23.1224 14.6707Z" fill="black"/>
<path d="M100 1.60206C100 0.717265 99.2827 0 98.3979 0H53.6021C52.7173 0 52 0.717266 52 1.60206V22.3655C52 23.2503 52.7173 23.9676 53.6021 23.9676H98.3979C99.2827 23.9676 100 23.2503 100 22.3655V1.60206Z" fill="white"/>
<path d="M78.3246 13.9658L79.0151 13.6168C80.1877 13.0242 80.1877 11.3498 79.0151 10.7571L78.3246 10.4082C77.259 9.86965 75.9999 10.6441 75.9999 11.838V12.5359C75.9999 13.7299 77.259 14.5043 78.3246 13.9658Z" fill="white"/>
<path d="M71.17 14.6707L74.9528 12.7589C75.4218 12.5219 75.4218 11.8521 74.9528 11.615L71.17 9.70327C70.7438 9.48785 70.2402 9.79762 70.2402 10.2752V14.0987C70.2402 14.5763 70.7438 14.8861 71.17 14.6707Z" fill="black"/>
</svg>
