<svg width="44" height="40" viewBox="0 0 44 40" fill="none" xmlns="http://www.w3.org/2000/svg">
<path d="M15.6577 3.80609C18.5876 -1.2687 25.9125 -1.2687 28.8424 3.8061L42.9689 28.2739C45.8988 33.3487 42.2364 39.6922 36.3765 39.6922H8.12354C2.26367 39.6922 -1.39874 33.3487 1.5312 28.2739L15.6577 3.80609Z" fill="white"/>
<path d="M22.25 11.9621C23.9872 17.5831 28.4896 21.918 34.1724 23.4408L35.2995 23.7429C29.56 24.1717 24.8961 28.2202 23.4891 33.5605C22.9326 35.6727 22.7839 37.8819 22.25 40C21.7162 37.8819 21.5675 35.6727 21.011 33.5605C19.604 28.2202 14.9401 24.1717 9.20057 23.7429L10.3277 23.4408C16.0105 21.918 20.5129 17.5831 22.25 11.9621Z" fill="#DEACB8"/>
</svg>
