<svg width="61" height="61" viewBox="0 0 61 61" fill="none" xmlns="http://www.w3.org/2000/svg">
<rect x="0.162109" y="0.015625" width="60" height="60" rx="30" fill="#F2F0D0"/>
<path d="M30.4121 43.9854C30.392 43.9057 30.3751 43.8252 30.3565 43.7451H30.4668C30.4482 43.8251 30.4322 43.9057 30.4121 43.9854ZM25.5957 18.6602C27.6439 15.1133 32.7635 15.1132 34.8115 18.6602L44.6856 35.7637C46.7336 39.3109 44.1741 43.745 40.0781 43.7451H30.4668C30.794 42.3383 30.9094 40.8813 31.2774 39.4844C32.2609 35.7515 35.5213 32.9209 39.5332 32.6211L38.7451 32.4102C34.7731 31.3456 31.6264 28.3156 30.4121 24.3867C29.1979 28.3158 26.0503 31.3456 22.0781 32.4102L21.2901 32.6211C25.302 32.9208 28.5624 35.7515 29.5459 39.4844C29.9139 40.8813 30.0293 42.3383 30.3565 43.7451H30.2529C30.2362 43.8167 30.2211 43.8887 30.2031 43.96C30.1852 43.8887 30.1711 43.8166 30.1543 43.7451H20.3291C16.2331 43.7451 13.6728 39.311 15.7207 35.7637L25.5957 18.6602Z" fill="#C27F7D"/>
</svg>
